%
M48
M72
T01C0.0320
%
T01
X970Y2720
X970Y4720
X970Y6720
X970Y8720
X3970Y8720
X5720Y8720
X5720Y7720
X5720Y6720
X5720Y5720
X5720Y4720
X5720Y3720
X5720Y2720
X3970Y2720
X3970Y4720
X3970Y6720
X5720Y9720
X6970Y11220
X3970Y12220
X1970Y11220
X8720Y8720
X8720Y7720
X8720Y6720
X8720Y5720
X8720Y4720
X8720Y3720
X8720Y2720
X11720Y2720
X11720Y3720
X11720Y4720
X11720Y5720
X11720Y6720
X11720Y7720
X11720Y8720
X11220Y11220
X11220Y12220
X14220Y12220
X17220Y12220
X15220Y9720
X15220Y8720
X15220Y7720
X15220Y6720
X15220Y5720
X15220Y4720
X15220Y3720
X15220Y2720
M30
