G75*
%MOIN*%
%OFA0B0*%
%FSLAX24Y24*%
%IPPOS*%
%LPD*%
%AMOC8*
5,1,8,0,0,1.08239X$1,22.5*
%
%ADD10C,0.0520*%
%ADD11OC8,0.0520*%
%ADD12OC8,0.0600*%
%ADD13C,0.0240*%
D10*
X005460Y002720D02*
X005980Y002720D01*
X005980Y003720D02*
X005460Y003720D01*
X005460Y004720D02*
X005980Y004720D01*
X005980Y005720D02*
X005460Y005720D01*
X005460Y006720D02*
X005980Y006720D01*
X005980Y007720D02*
X005460Y007720D01*
X005460Y008720D02*
X005980Y008720D01*
X005980Y009720D02*
X005460Y009720D01*
X008460Y008720D02*
X008980Y008720D01*
X008980Y007720D02*
X008460Y007720D01*
X008460Y006720D02*
X008980Y006720D01*
X008980Y005720D02*
X008460Y005720D01*
X008460Y004720D02*
X008980Y004720D01*
X008980Y003720D02*
X008460Y003720D01*
X008460Y002720D02*
X008980Y002720D01*
X011460Y002720D02*
X011980Y002720D01*
X011980Y003720D02*
X011460Y003720D01*
X011460Y004720D02*
X011980Y004720D01*
X011980Y005720D02*
X011460Y005720D01*
X011460Y006720D02*
X011980Y006720D01*
X011980Y007720D02*
X011460Y007720D01*
X011460Y008720D02*
X011980Y008720D01*
X014960Y008720D02*
X015480Y008720D01*
X015480Y007720D02*
X014960Y007720D01*
X014960Y006720D02*
X015480Y006720D01*
X015480Y005720D02*
X014960Y005720D01*
X014960Y004720D02*
X015480Y004720D01*
X015480Y003720D02*
X014960Y003720D01*
X014960Y002720D02*
X015480Y002720D01*
X015480Y009720D02*
X014960Y009720D01*
D11*
X014220Y012220D03*
X017220Y012220D03*
X011220Y012220D03*
X011220Y011220D03*
X003970Y008720D03*
X003970Y006720D03*
X003970Y004720D03*
X003970Y002720D03*
X000970Y002720D03*
X000970Y004720D03*
X000970Y006720D03*
X000970Y008720D03*
D12*
X001970Y011220D03*
X003970Y012220D03*
X006970Y011220D03*
D13*
X000740Y002271D02*
X000740Y000740D01*
X008007Y000740D01*
X006805Y001942D01*
X006730Y002123D01*
X006730Y008317D01*
X006805Y008498D01*
X007442Y009135D01*
X007623Y009210D01*
X008059Y009210D01*
X008103Y009254D01*
X008335Y009350D01*
X009105Y009350D01*
X009337Y009254D01*
X009514Y009077D01*
X009610Y008845D01*
X009610Y008595D01*
X009514Y008363D01*
X009371Y008220D01*
X009381Y008210D01*
X009730Y008210D01*
X009730Y009517D01*
X007517Y011730D01*
X007195Y011730D01*
X007490Y011435D01*
X007490Y011220D01*
X006970Y011220D01*
X006970Y011220D01*
X007490Y011220D01*
X007490Y011005D01*
X007185Y010700D01*
X006970Y010700D01*
X006970Y011220D01*
X006970Y011220D01*
X006970Y011220D01*
X006450Y011220D01*
X006450Y011435D01*
X006745Y011730D01*
X004428Y011730D01*
X004248Y011550D01*
X003692Y011550D01*
X003300Y011942D01*
X003300Y012498D01*
X003512Y012710D01*
X002903Y012710D01*
X002460Y012267D01*
X002460Y011678D01*
X002640Y011498D01*
X002640Y010942D01*
X002248Y010550D01*
X001692Y010550D01*
X001300Y010942D01*
X001300Y011498D01*
X001480Y011678D01*
X001480Y012567D01*
X001555Y012748D01*
X002007Y013200D01*
X000740Y013200D01*
X000740Y009169D01*
X000771Y009200D01*
X000970Y009200D01*
X000970Y008720D01*
X000970Y008720D01*
X001450Y008720D01*
X001450Y008919D01*
X001169Y009200D01*
X000970Y009200D01*
X000970Y008720D01*
X000970Y008720D01*
X001450Y008720D01*
X001450Y008521D01*
X001169Y008240D01*
X000970Y008240D01*
X000970Y008720D01*
X000970Y008720D01*
X000970Y008240D01*
X000771Y008240D01*
X000740Y008271D01*
X000740Y007169D01*
X000771Y007200D01*
X000970Y007200D01*
X000970Y006720D01*
X000970Y006720D01*
X001450Y006720D01*
X001450Y006919D01*
X001169Y007200D01*
X000970Y007200D01*
X000970Y006720D01*
X000970Y006720D01*
X001450Y006720D01*
X001450Y006521D01*
X001169Y006240D01*
X000970Y006240D01*
X000970Y006720D01*
X000970Y006720D01*
X000970Y006240D01*
X000771Y006240D01*
X000740Y006271D01*
X000740Y005169D01*
X000771Y005200D01*
X000970Y005200D01*
X000970Y004720D01*
X000970Y004720D01*
X001450Y004720D01*
X001450Y004919D01*
X001169Y005200D01*
X000970Y005200D01*
X000970Y004720D01*
X000970Y004720D01*
X001450Y004720D01*
X001450Y004521D01*
X001169Y004240D01*
X000970Y004240D01*
X000970Y004720D01*
X000970Y004720D01*
X000970Y004240D01*
X000771Y004240D01*
X000740Y004271D01*
X000740Y003169D01*
X000771Y003200D01*
X000970Y003200D01*
X000970Y002720D01*
X000970Y002720D01*
X001450Y002720D01*
X001450Y002919D01*
X001169Y003200D01*
X000970Y003200D01*
X000970Y002720D01*
X000970Y002720D01*
X001450Y002720D01*
X001450Y002521D01*
X001169Y002240D01*
X000970Y002240D01*
X000970Y002720D01*
X000970Y002720D01*
X000970Y002240D01*
X000771Y002240D01*
X000740Y002271D01*
X000740Y002260D02*
X000751Y002260D01*
X000970Y002260D02*
X000970Y002260D01*
X001189Y002260D02*
X003539Y002260D01*
X003709Y002090D02*
X003340Y002459D01*
X003340Y002981D01*
X003709Y003350D01*
X004231Y003350D01*
X004600Y002981D01*
X004600Y002459D01*
X004231Y002090D01*
X003709Y002090D01*
X003340Y002499D02*
X001427Y002499D01*
X001450Y002737D02*
X003340Y002737D01*
X003340Y002976D02*
X001393Y002976D01*
X000970Y002976D02*
X000970Y002976D01*
X000740Y003214D02*
X003573Y003214D01*
X004367Y003214D02*
X005063Y003214D01*
X005103Y003254D02*
X004926Y003077D01*
X004830Y002845D01*
X004830Y002595D01*
X004926Y002363D01*
X005103Y002186D01*
X005335Y002090D01*
X006105Y002090D01*
X006337Y002186D01*
X006514Y002363D01*
X006610Y002595D01*
X006610Y002845D01*
X006514Y003077D01*
X006337Y003254D01*
X006219Y003303D01*
X006232Y003309D01*
X006293Y003354D01*
X006346Y003407D01*
X006391Y003468D01*
X006425Y003536D01*
X006448Y003608D01*
X006460Y003682D01*
X006460Y003720D01*
X006460Y003758D01*
X006448Y003832D01*
X006425Y003904D01*
X006391Y003972D01*
X006346Y004033D01*
X006293Y004086D01*
X006232Y004131D01*
X006219Y004137D01*
X006337Y004186D01*
X006514Y004363D01*
X006610Y004595D01*
X006610Y004845D01*
X006514Y005077D01*
X006337Y005254D01*
X006219Y005303D01*
X006232Y005309D01*
X006293Y005354D01*
X006346Y005407D01*
X006391Y005468D01*
X006425Y005536D01*
X006448Y005608D01*
X006460Y005682D01*
X006460Y005720D01*
X006460Y005758D01*
X006448Y005832D01*
X006425Y005904D01*
X006391Y005972D01*
X006346Y006033D01*
X006293Y006086D01*
X006232Y006131D01*
X006219Y006137D01*
X006337Y006186D01*
X006514Y006363D01*
X006610Y006595D01*
X006610Y006845D01*
X006514Y007077D01*
X006337Y007254D01*
X006219Y007303D01*
X006232Y007309D01*
X006293Y007354D01*
X006346Y007407D01*
X006391Y007468D01*
X006425Y007536D01*
X006448Y007608D01*
X006460Y007682D01*
X006460Y007720D01*
X006460Y007758D01*
X006448Y007832D01*
X006425Y007904D01*
X006391Y007972D01*
X006346Y008033D01*
X006293Y008086D01*
X006232Y008131D01*
X006219Y008137D01*
X006337Y008186D01*
X006514Y008363D01*
X006610Y008595D01*
X006610Y008845D01*
X006514Y009077D01*
X006337Y009254D01*
X006219Y009303D01*
X006232Y009309D01*
X006293Y009354D01*
X006346Y009407D01*
X006391Y009468D01*
X006425Y009536D01*
X006448Y009608D01*
X006460Y009682D01*
X006460Y009720D01*
X006460Y009758D01*
X006448Y009832D01*
X006425Y009904D01*
X006391Y009972D01*
X006346Y010033D01*
X006293Y010086D01*
X006232Y010131D01*
X009117Y010131D01*
X009355Y009892D02*
X006429Y009892D01*
X006460Y009720D02*
X005720Y009720D01*
X005720Y009720D01*
X005720Y010200D01*
X006018Y010200D01*
X006092Y010188D01*
X006164Y010165D01*
X006232Y010131D01*
X006460Y009720D02*
X005720Y009720D01*
X005720Y009720D01*
X005720Y009720D01*
X004980Y009720D01*
X004980Y009758D01*
X004992Y009832D01*
X005015Y009904D01*
X005049Y009972D01*
X005094Y010033D01*
X005147Y010086D01*
X005208Y010131D01*
X000740Y010131D01*
X000740Y009892D02*
X005011Y009892D01*
X004980Y009720D02*
X004980Y009682D01*
X004992Y009608D01*
X005015Y009536D01*
X005049Y009468D01*
X005094Y009407D01*
X005147Y009354D01*
X005208Y009309D01*
X005221Y009303D01*
X005103Y009254D01*
X004926Y009077D01*
X004830Y008845D01*
X004830Y008595D01*
X004926Y008363D01*
X005103Y008186D01*
X005221Y008137D01*
X005208Y008131D01*
X005147Y008086D01*
X005094Y008033D01*
X005049Y007972D01*
X005015Y007904D01*
X004992Y007832D01*
X004980Y007758D01*
X004980Y007720D01*
X005720Y007720D01*
X006460Y007720D01*
X005720Y007720D01*
X005720Y007720D01*
X005720Y007720D01*
X004980Y007720D01*
X004980Y007682D01*
X004992Y007608D01*
X005015Y007536D01*
X005049Y007468D01*
X005094Y007407D01*
X005147Y007354D01*
X005208Y007309D01*
X005221Y007303D01*
X005103Y007254D01*
X004926Y007077D01*
X004830Y006845D01*
X004830Y006595D01*
X004926Y006363D01*
X005103Y006186D01*
X005221Y006137D01*
X005208Y006131D01*
X005147Y006086D01*
X005094Y006033D01*
X005049Y005972D01*
X005015Y005904D01*
X004992Y005832D01*
X004980Y005758D01*
X004980Y005720D01*
X005720Y005720D01*
X006460Y005720D01*
X005720Y005720D01*
X005720Y005720D01*
X005720Y005720D01*
X004980Y005720D01*
X004980Y005682D01*
X004992Y005608D01*
X005015Y005536D01*
X005049Y005468D01*
X005094Y005407D01*
X005147Y005354D01*
X005208Y005309D01*
X005221Y005303D01*
X005103Y005254D01*
X004926Y005077D01*
X004830Y004845D01*
X004830Y004595D01*
X004926Y004363D01*
X005103Y004186D01*
X005221Y004137D01*
X005208Y004131D01*
X005147Y004086D01*
X005094Y004033D01*
X005049Y003972D01*
X005015Y003904D01*
X004992Y003832D01*
X004980Y003758D01*
X004980Y003720D01*
X005720Y003720D01*
X006460Y003720D01*
X005720Y003720D01*
X005720Y003720D01*
X005720Y003720D01*
X004980Y003720D01*
X004980Y003682D01*
X004992Y003608D01*
X005015Y003536D01*
X005049Y003468D01*
X005094Y003407D01*
X005147Y003354D01*
X005208Y003309D01*
X005221Y003303D01*
X005103Y003254D01*
X005061Y003453D02*
X000740Y003453D01*
X000740Y003691D02*
X004980Y003691D01*
X005028Y003930D02*
X000740Y003930D01*
X000740Y004168D02*
X003631Y004168D01*
X003709Y004090D02*
X004231Y004090D01*
X004600Y004459D01*
X004600Y004981D01*
X004231Y005350D01*
X003709Y005350D01*
X003340Y004981D01*
X003340Y004459D01*
X003709Y004090D01*
X003393Y004407D02*
X001335Y004407D01*
X001450Y004645D02*
X003340Y004645D01*
X003340Y004884D02*
X001450Y004884D01*
X001247Y005122D02*
X003481Y005122D01*
X004459Y005122D02*
X004971Y005122D01*
X004846Y004884D02*
X004600Y004884D01*
X004600Y004645D02*
X004830Y004645D01*
X004908Y004407D02*
X004547Y004407D01*
X004309Y004168D02*
X005146Y004168D01*
X006294Y004168D02*
X006730Y004168D01*
X006730Y003930D02*
X006412Y003930D01*
X006460Y003691D02*
X006730Y003691D01*
X006730Y003453D02*
X006379Y003453D01*
X006377Y003214D02*
X006730Y003214D01*
X006730Y002976D02*
X006556Y002976D01*
X006610Y002737D02*
X006730Y002737D01*
X006730Y002499D02*
X006570Y002499D01*
X006411Y002260D02*
X006730Y002260D01*
X006772Y002022D02*
X000740Y002022D01*
X000740Y001783D02*
X006964Y001783D01*
X007203Y001545D02*
X000740Y001545D01*
X000740Y001306D02*
X007441Y001306D01*
X007680Y001068D02*
X000740Y001068D01*
X000740Y000829D02*
X007918Y000829D01*
X008720Y000720D02*
X007220Y002220D01*
X007220Y008220D01*
X007720Y008720D01*
X008720Y008720D01*
X009373Y008223D02*
X009730Y008223D01*
X009730Y008461D02*
X009555Y008461D01*
X009610Y008700D02*
X009730Y008700D01*
X009730Y008938D02*
X009572Y008938D01*
X009414Y009177D02*
X009730Y009177D01*
X009730Y009415D02*
X006352Y009415D01*
X006414Y009177D02*
X007542Y009177D01*
X007245Y008938D02*
X006572Y008938D01*
X006610Y008700D02*
X007007Y008700D01*
X006789Y008461D02*
X006555Y008461D01*
X006730Y008223D02*
X006373Y008223D01*
X006381Y007984D02*
X006730Y007984D01*
X006730Y007746D02*
X006460Y007746D01*
X006410Y007507D02*
X006730Y007507D01*
X006730Y007269D02*
X006302Y007269D01*
X006533Y007030D02*
X006730Y007030D01*
X006730Y006792D02*
X006610Y006792D01*
X006593Y006553D02*
X006730Y006553D01*
X006730Y006315D02*
X006465Y006315D01*
X006303Y006076D02*
X006730Y006076D01*
X006730Y005838D02*
X006447Y005838D01*
X006445Y005599D02*
X006730Y005599D01*
X006730Y005361D02*
X006299Y005361D01*
X006469Y005122D02*
X006730Y005122D01*
X006730Y004884D02*
X006594Y004884D01*
X006610Y004645D02*
X006730Y004645D01*
X006730Y004407D02*
X006532Y004407D01*
X005141Y005361D02*
X000740Y005361D01*
X000740Y005599D02*
X004995Y005599D01*
X004993Y005838D02*
X000740Y005838D01*
X000740Y006076D02*
X005137Y006076D01*
X004975Y006315D02*
X004455Y006315D01*
X004600Y006459D02*
X004231Y006090D01*
X003709Y006090D01*
X003340Y006459D01*
X003340Y006981D01*
X003709Y007350D01*
X004231Y007350D01*
X004600Y006981D01*
X004600Y006459D01*
X004600Y006553D02*
X004847Y006553D01*
X004830Y006792D02*
X004600Y006792D01*
X004551Y007030D02*
X004907Y007030D01*
X005138Y007269D02*
X004312Y007269D01*
X003628Y007269D02*
X000740Y007269D01*
X000740Y007507D02*
X005030Y007507D01*
X004980Y007746D02*
X000740Y007746D01*
X000740Y007984D02*
X005059Y007984D01*
X005067Y008223D02*
X004363Y008223D01*
X004231Y008090D02*
X004600Y008459D01*
X004600Y008981D01*
X004231Y009350D01*
X003709Y009350D01*
X003340Y008981D01*
X003340Y008459D01*
X003709Y008090D01*
X004231Y008090D01*
X004600Y008461D02*
X004885Y008461D01*
X004830Y008700D02*
X004600Y008700D01*
X004600Y008938D02*
X004868Y008938D01*
X005026Y009177D02*
X004404Y009177D01*
X005088Y009415D02*
X000740Y009415D01*
X000740Y009177D02*
X000748Y009177D01*
X000970Y009177D02*
X000970Y009177D01*
X001192Y009177D02*
X003536Y009177D01*
X003340Y008938D02*
X001431Y008938D01*
X001450Y008700D02*
X003340Y008700D01*
X003340Y008461D02*
X001390Y008461D01*
X000970Y008461D02*
X000970Y008461D01*
X000970Y008700D02*
X000970Y008700D01*
X000970Y008938D02*
X000970Y008938D01*
X000740Y008223D02*
X003577Y008223D01*
X003389Y007030D02*
X001339Y007030D01*
X001450Y006792D02*
X003340Y006792D01*
X003340Y006553D02*
X001450Y006553D01*
X001243Y006315D02*
X003485Y006315D01*
X000970Y006315D02*
X000970Y006315D01*
X000970Y006553D02*
X000970Y006553D01*
X000970Y006792D02*
X000970Y006792D01*
X000970Y007030D02*
X000970Y007030D01*
X000970Y005122D02*
X000970Y005122D01*
X000970Y004884D02*
X000970Y004884D01*
X000970Y004645D02*
X000970Y004645D01*
X000970Y004407D02*
X000970Y004407D01*
X000970Y002737D02*
X000970Y002737D01*
X000970Y002499D02*
X000970Y002499D01*
X004401Y002260D02*
X005029Y002260D01*
X004870Y002499D02*
X004600Y002499D01*
X004600Y002737D02*
X004830Y002737D01*
X004884Y002976D02*
X004600Y002976D01*
X008720Y002720D02*
X010220Y001220D01*
X016720Y001220D01*
X017220Y001720D01*
X017220Y003720D01*
X016220Y004720D01*
X015220Y004720D01*
X015220Y003720D02*
X016220Y003720D01*
X016720Y003220D01*
X016720Y002220D01*
X016220Y001720D01*
X013220Y001720D01*
X011720Y002720D01*
X012371Y003220D02*
X012514Y003363D01*
X012610Y003595D01*
X012610Y003845D01*
X012514Y004077D01*
X012371Y004220D01*
X012514Y004363D01*
X012610Y004595D01*
X012610Y004845D01*
X012514Y005077D01*
X012337Y005254D01*
X012219Y005303D01*
X012232Y005309D01*
X012293Y005354D01*
X012346Y005407D01*
X012391Y005468D01*
X012425Y005536D01*
X012448Y005608D01*
X012460Y005682D01*
X012460Y005720D01*
X012460Y005758D01*
X012448Y005832D01*
X012425Y005904D01*
X012391Y005972D01*
X012346Y006033D01*
X012293Y006086D01*
X012232Y006131D01*
X012219Y006137D01*
X012337Y006186D01*
X012514Y006363D01*
X012610Y006595D01*
X012610Y006845D01*
X012514Y007077D01*
X012371Y007220D01*
X012514Y007363D01*
X012610Y007595D01*
X012610Y007845D01*
X012514Y008077D01*
X012371Y008220D01*
X012381Y008230D01*
X012453Y008230D01*
X012730Y007953D01*
X012730Y003123D01*
X012805Y002942D01*
X012942Y002805D01*
X013305Y002442D01*
X013442Y002305D01*
X013623Y002230D01*
X014559Y002230D01*
X014579Y002210D01*
X013368Y002210D01*
X012610Y002716D01*
X012610Y002845D01*
X012514Y003077D01*
X012371Y003220D01*
X012377Y003214D02*
X012730Y003214D01*
X012791Y002976D02*
X012556Y002976D01*
X012610Y002737D02*
X013010Y002737D01*
X012936Y002499D02*
X013249Y002499D01*
X013293Y002260D02*
X013550Y002260D01*
X013720Y002720D02*
X015220Y002720D01*
X013720Y002720D02*
X013220Y003220D01*
X013220Y008156D01*
X012656Y008720D01*
X011720Y008720D01*
X012373Y008223D02*
X012460Y008223D01*
X012553Y007984D02*
X012699Y007984D01*
X012730Y007746D02*
X012610Y007746D01*
X012574Y007507D02*
X012730Y007507D01*
X012730Y007269D02*
X012419Y007269D01*
X012533Y007030D02*
X012730Y007030D01*
X012730Y006792D02*
X012610Y006792D01*
X012593Y006553D02*
X012730Y006553D01*
X012730Y006315D02*
X012465Y006315D01*
X012303Y006076D02*
X012730Y006076D01*
X012730Y005838D02*
X012447Y005838D01*
X012460Y005720D02*
X011720Y005720D01*
X011720Y005720D01*
X011720Y005720D01*
X010980Y005720D01*
X010980Y005758D01*
X010992Y005832D01*
X011015Y005904D01*
X011049Y005972D01*
X011094Y006033D01*
X011147Y006086D01*
X011208Y006131D01*
X011221Y006137D01*
X011103Y006186D01*
X010926Y006363D01*
X010830Y006595D01*
X010830Y006845D01*
X010926Y007077D01*
X011069Y007220D01*
X011059Y007230D01*
X010710Y007230D01*
X010710Y004210D01*
X011059Y004210D01*
X011069Y004220D01*
X010926Y004363D01*
X010830Y004595D01*
X010830Y004845D01*
X010926Y005077D01*
X011103Y005254D01*
X011221Y005303D01*
X011208Y005309D01*
X011147Y005354D01*
X011094Y005407D01*
X011049Y005468D01*
X011015Y005536D01*
X010992Y005608D01*
X010980Y005682D01*
X010980Y005720D01*
X011720Y005720D01*
X012460Y005720D01*
X012445Y005599D02*
X012730Y005599D01*
X012730Y005361D02*
X012299Y005361D01*
X012469Y005122D02*
X012730Y005122D01*
X012730Y004884D02*
X012594Y004884D01*
X012610Y004645D02*
X012730Y004645D01*
X012730Y004407D02*
X012532Y004407D01*
X012423Y004168D02*
X012730Y004168D01*
X012730Y003930D02*
X012575Y003930D01*
X012610Y003691D02*
X012730Y003691D01*
X012730Y003453D02*
X012551Y003453D01*
X011720Y003720D02*
X010220Y003720D01*
X010220Y007702D01*
X010238Y007720D01*
X010220Y007738D01*
X010220Y009594D01*
X010346Y009720D01*
X012720Y009720D01*
X013720Y008720D01*
X013720Y007220D01*
X014220Y006720D01*
X015220Y006720D01*
X015871Y007220D02*
X016014Y007363D01*
X016110Y007595D01*
X016110Y007845D01*
X016014Y008077D01*
X015837Y008254D01*
X015719Y008303D01*
X015732Y008309D01*
X015793Y008354D01*
X015846Y008407D01*
X015891Y008468D01*
X015925Y008536D01*
X015948Y008608D01*
X015960Y008682D01*
X015960Y008720D01*
X015960Y008758D01*
X015948Y008832D01*
X015925Y008904D01*
X015891Y008972D01*
X015846Y009033D01*
X015793Y009086D01*
X015732Y009131D01*
X015719Y009137D01*
X015837Y009186D01*
X015881Y009230D01*
X016317Y009230D01*
X016498Y009305D01*
X017498Y010305D01*
X017635Y010442D01*
X017700Y010598D01*
X017700Y004933D01*
X016498Y006135D01*
X016317Y006210D01*
X015881Y006210D01*
X015871Y006220D01*
X016014Y006363D01*
X016110Y006595D01*
X016110Y006845D01*
X016014Y007077D01*
X015871Y007220D01*
X015919Y007269D02*
X017700Y007269D01*
X017700Y007507D02*
X016074Y007507D01*
X016110Y007746D02*
X017700Y007746D01*
X017700Y007984D02*
X016053Y007984D01*
X015868Y008223D02*
X017700Y008223D01*
X017700Y008461D02*
X015885Y008461D01*
X015960Y008700D02*
X017700Y008700D01*
X017700Y008938D02*
X015908Y008938D01*
X015960Y008720D02*
X015220Y008720D01*
X015220Y008720D01*
X015220Y008720D01*
X014480Y008720D01*
X014480Y008758D01*
X014492Y008832D01*
X014515Y008904D01*
X014549Y008972D01*
X014594Y009033D01*
X014647Y009086D01*
X014708Y009131D01*
X014721Y009137D01*
X014603Y009186D01*
X014426Y009363D01*
X014330Y009595D01*
X014330Y009845D01*
X014426Y010077D01*
X014603Y010254D01*
X014835Y010350D01*
X015605Y010350D01*
X015837Y010254D01*
X015881Y010210D01*
X016017Y010210D01*
X016730Y010923D01*
X016730Y011819D01*
X016590Y011959D01*
X016590Y012157D01*
X016037Y012710D01*
X014621Y012710D01*
X014850Y012481D01*
X014850Y011959D01*
X014481Y011590D01*
X013959Y011590D01*
X013819Y011730D01*
X011621Y011730D01*
X011505Y011614D01*
X011700Y011419D01*
X011700Y011220D01*
X011220Y011220D01*
X011220Y011220D01*
X011700Y011220D01*
X011700Y011021D01*
X011419Y010740D01*
X011220Y010740D01*
X011220Y011220D01*
X011220Y011220D01*
X011220Y011220D01*
X010740Y011220D01*
X010740Y011419D01*
X010935Y011614D01*
X010590Y011959D01*
X010590Y012481D01*
X010819Y012710D01*
X004428Y012710D01*
X007623Y012710D01*
X007817Y012710D01*
X007998Y012635D01*
X010423Y010210D01*
X012817Y010210D01*
X012998Y010135D01*
X013135Y009998D01*
X013135Y009998D01*
X013998Y009135D01*
X013998Y009135D01*
X014135Y008998D01*
X014210Y008817D01*
X014210Y007423D01*
X014423Y007210D01*
X014559Y007210D01*
X014569Y007220D01*
X014426Y007363D01*
X014330Y007595D01*
X014330Y007845D01*
X014426Y008077D01*
X014603Y008254D01*
X014721Y008303D01*
X014708Y008309D01*
X014647Y008354D01*
X014594Y008407D01*
X014549Y008468D01*
X014515Y008536D01*
X014492Y008608D01*
X014480Y008682D01*
X014480Y008720D01*
X015220Y008720D01*
X015960Y008720D01*
X015814Y009177D02*
X017700Y009177D01*
X017700Y009415D02*
X016608Y009415D01*
X016846Y009654D02*
X017700Y009654D01*
X017700Y009892D02*
X017085Y009892D01*
X017323Y010131D02*
X017700Y010131D01*
X017700Y010369D02*
X017562Y010369D01*
X017220Y010720D02*
X017220Y012220D01*
X016240Y013200D01*
X002700Y013200D01*
X001970Y012470D01*
X001970Y011220D01*
X001300Y011323D02*
X000740Y011323D01*
X000740Y011085D02*
X001300Y011085D01*
X001396Y010846D02*
X000740Y010846D01*
X000740Y010608D02*
X001635Y010608D01*
X002305Y010608D02*
X008640Y010608D01*
X008878Y010369D02*
X000740Y010369D01*
X000740Y009654D02*
X004985Y009654D01*
X004980Y009720D02*
X005720Y009720D01*
X005720Y010200D01*
X005422Y010200D01*
X005348Y010188D01*
X005276Y010165D01*
X005208Y010131D01*
X005720Y010131D02*
X005720Y010131D01*
X005720Y009892D02*
X005720Y009892D01*
X006455Y009654D02*
X009594Y009654D01*
X010220Y009594D02*
X010220Y009720D01*
X007720Y012220D01*
X003970Y012220D01*
X003442Y011800D02*
X002460Y011800D01*
X002576Y011562D02*
X003681Y011562D01*
X003300Y012039D02*
X002460Y012039D01*
X002470Y012277D02*
X003300Y012277D01*
X003318Y012516D02*
X002708Y012516D01*
X001800Y012993D02*
X000740Y012993D01*
X000740Y012754D02*
X001561Y012754D01*
X001480Y012516D02*
X000740Y012516D01*
X000740Y012277D02*
X001480Y012277D01*
X001480Y012039D02*
X000740Y012039D01*
X000740Y011800D02*
X001480Y011800D01*
X001364Y011562D02*
X000740Y011562D01*
X002544Y010846D02*
X006609Y010846D01*
X006755Y010700D02*
X006450Y011005D01*
X006450Y011220D01*
X006970Y011220D01*
X006970Y010700D01*
X006755Y010700D01*
X006970Y010846D02*
X006970Y010846D01*
X006970Y011085D02*
X006970Y011085D01*
X007331Y010846D02*
X008401Y010846D01*
X008163Y011085D02*
X007490Y011085D01*
X007490Y011323D02*
X007924Y011323D01*
X007686Y011562D02*
X007364Y011562D01*
X006576Y011562D02*
X004259Y011562D01*
X004428Y012710D02*
X004428Y012710D01*
X002640Y011323D02*
X006450Y011323D01*
X006450Y011085D02*
X002640Y011085D01*
X008117Y012516D02*
X010625Y012516D01*
X010590Y012277D02*
X008356Y012277D01*
X008594Y012039D02*
X010590Y012039D01*
X010749Y011800D02*
X008833Y011800D01*
X009071Y011562D02*
X010883Y011562D01*
X010740Y011323D02*
X009310Y011323D01*
X009548Y011085D02*
X010740Y011085D01*
X010740Y011021D02*
X011021Y010740D01*
X011220Y010740D01*
X011220Y011220D01*
X010740Y011220D01*
X010740Y011021D01*
X010915Y010846D02*
X009787Y010846D01*
X010025Y010608D02*
X016415Y010608D01*
X016653Y010846D02*
X011525Y010846D01*
X011700Y011085D02*
X016730Y011085D01*
X016730Y011323D02*
X011700Y011323D01*
X011557Y011562D02*
X016730Y011562D01*
X016730Y011800D02*
X014691Y011800D01*
X014850Y012039D02*
X016590Y012039D01*
X016470Y012277D02*
X014850Y012277D01*
X014815Y012516D02*
X016232Y012516D01*
X014220Y012220D02*
X011220Y012220D01*
X011220Y011085D02*
X011220Y011085D01*
X011220Y010846D02*
X011220Y010846D01*
X010264Y010369D02*
X016176Y010369D01*
X016220Y009720D02*
X017220Y010720D01*
X016220Y009720D02*
X015220Y009720D01*
X014626Y009177D02*
X013956Y009177D01*
X013718Y009415D02*
X014404Y009415D01*
X014330Y009654D02*
X013479Y009654D01*
X013241Y009892D02*
X014349Y009892D01*
X014480Y010131D02*
X013002Y010131D01*
X014160Y008938D02*
X014532Y008938D01*
X014480Y008700D02*
X014210Y008700D01*
X014210Y008461D02*
X014555Y008461D01*
X014572Y008223D02*
X014210Y008223D01*
X014210Y007984D02*
X014387Y007984D01*
X014330Y007746D02*
X014210Y007746D01*
X014210Y007507D02*
X014366Y007507D01*
X014364Y007269D02*
X014521Y007269D01*
X016033Y007030D02*
X017700Y007030D01*
X017700Y006792D02*
X016110Y006792D01*
X016093Y006553D02*
X017700Y006553D01*
X017700Y006315D02*
X015965Y006315D01*
X016557Y006076D02*
X017700Y006076D01*
X017700Y005838D02*
X016795Y005838D01*
X017034Y005599D02*
X017700Y005599D01*
X017700Y005361D02*
X017272Y005361D01*
X017511Y005122D02*
X017700Y005122D01*
X017720Y004220D02*
X017720Y001220D01*
X017220Y000720D01*
X008720Y000720D01*
X008720Y003720D02*
X010220Y003720D01*
X010710Y004407D02*
X010908Y004407D01*
X010830Y004645D02*
X010710Y004645D01*
X010710Y004884D02*
X010846Y004884D01*
X010971Y005122D02*
X010710Y005122D01*
X010710Y005361D02*
X011141Y005361D01*
X010995Y005599D02*
X010710Y005599D01*
X010710Y005838D02*
X010993Y005838D01*
X011137Y006076D02*
X010710Y006076D01*
X010710Y006315D02*
X010975Y006315D01*
X010847Y006553D02*
X010710Y006553D01*
X010710Y006792D02*
X010830Y006792D01*
X010907Y007030D02*
X010710Y007030D01*
X010238Y007720D02*
X011720Y007720D01*
X010238Y007720D02*
X008720Y007720D01*
X015220Y005720D02*
X016220Y005720D01*
X017720Y004220D01*
M02*
