%
M48
M72
T01C0.0320
T02C0.0400
T03C0.0470
T04C0.0600
%
T01
X3160Y4470
X3160Y13470
X3160Y22470
X3160Y31470
X6160Y31470
X6160Y22470
X6160Y13470
X6160Y4470
T02
X2160Y1470
X3160Y1470
X4160Y1470
X5160Y1470
X6160Y1470
X7160Y1470
T03
X7120Y7990
X7120Y9950
X7120Y16990
X7120Y18950
X7120Y25990
X7120Y27950
X7120Y34990
X7120Y36950
X2200Y36950
X2200Y34990
X2200Y27950
X2200Y25990
X2200Y18950
X2200Y16990
X2200Y9950
X2200Y7990
T04
X4660Y7220
X4660Y10720
X4660Y16220
X4660Y19720
X4660Y25220
X4660Y28720
X4660Y34220
X4660Y37720
M30
